<?xml version="1.0" standalone="no"?>
<!DOCTYPE svg PUBLIC "-//W3C//DTD SVG 20010904//EN"
 "http://www.w3.org/TR/2001/REC-SVG-20010904/DTD/svg10.dtd">
<svg version="1.0" xmlns="http://www.w3.org/2000/svg"
 width="200.000000pt" height="200.000000pt" viewBox="0 0 200.000000 200.000000"
 preserveAspectRatio="xMidYMid meet">

<g transform="translate(0.000000,200.000000) scale(0.100000,-0.100000)"
fill="#000000" stroke="none">
<path d="M1096 1481 c-72 -21 -132 -43 -134 -50 -3 -8 4 -10 20 -7 183 42 253
55 259 49 4 -5 29 -99 57 -210 42 -176 47 -203 33 -207 -9 -3 -95 -26 -191
-51 -256 -67 -314 -85 -304 -95 5 -5 25 -5 45 -1 24 5 47 4 65 -4 16 -6 75
-24 131 -40 99 -27 103 -28 123 -10 12 11 22 37 26 67 8 62 18 71 88 87 36 8
60 19 66 32 14 26 -92 448 -117 467 -22 16 -17 17 -167 -27z m98 -548 c-8 -25
-15 -47 -17 -48 -5 -4 -177 40 -177 45 0 5 167 47 197 49 8 1 7 -12 -3 -46z"/>
<path d="M805 1500 c-28 -11 -42 -29 -53 -70 -6 -23 -14 -34 -23 -31 -8 3 -27
5 -44 5 -26 1 -31 -4 -43 -39 -19 -57 -28 -145 -14 -145 10 0 52 120 52 149 0
13 19 14 39 2 11 -7 5 -39 -29 -175 -34 -135 -41 -177 -36 -217 14 -107 49
-127 107 -61 50 54 65 96 113 312 49 220 48 242 -10 266 -18 8 -35 14 -36 13
-2 0 -12 -4 -23 -9z m59 -36 c24 -23 20 -51 -33 -261 -38 -148 -56 -202 -81
-238 -17 -25 -35 -45 -39 -45 -10 0 -21 50 -21 97 0 20 16 113 36 207 19 94
37 181 40 194 10 52 66 78 98 46z"/>
<path d="M980 1263 c-53 -82 -66 -120 -31 -89 23 21 27 15 36 -47 4 -26 12
-50 17 -53 5 -3 50 4 100 16 l90 23 -6 36 c-3 20 -8 48 -12 63 -5 23 -4 26 15
21 12 -3 21 -1 21 6 0 12 -147 101 -168 101 -7 0 -35 -35 -62 -77z m117 10
c40 -17 42 -20 49 -71 3 -29 4 -55 1 -58 -5 -5 -121 -34 -123 -31 -1 1 -9 24
-18 51 -16 50 -16 50 10 88 15 21 29 38 33 38 3 0 25 -8 48 -17z"/>
<path d="M1815 786 c-18 -14 -18 -15 -2 -16 15 0 17 -13 17 -130 0 -80 -4
-130 -10 -130 -5 0 -10 -4 -10 -10 0 -5 20 -10 45 -10 44 0 60 12 30 24 -11 4
-15 33 -17 143 -3 148 -9 162 -53 129z"/>
<path d="M111 771 c-11 -7 -9 -10 8 -16 20 -6 21 -13 21 -122 0 -106 -1 -115
-20 -120 -39 -10 -19 -23 34 -23 56 0 82 13 46 23 -16 4 -20 14 -20 50 l0 44
66 6 c76 7 111 26 120 64 11 42 -7 77 -46 90 -41 14 -189 17 -209 4z m162 -22
c26 -7 41 -18 47 -35 19 -49 -15 -76 -99 -78 l-36 -1 -3 48 c-5 74 14 88 91
66z"/>
<path d="M1455 760 c-4 -7 -3 -16 3 -22 14 -14 47 -6 47 12 0 18 -40 26 -50
10z"/>
<path d="M658 713 c-10 -17 -23 -34 -30 -37 -10 -5 -10 -7 0 -12 7 -3 12 -25
12 -54 0 -109 25 -144 85 -119 l30 13 -31 4 c-37 4 -44 19 -44 100 l0 52 36 0
c45 0 42 24 -4 28 -25 3 -31 8 -34 30 l-3 27 -17 -32z"/>
<path d="M1298 713 c-10 -17 -23 -34 -30 -37 -10 -3 -8 -8 5 -16 14 -9 17 -25
17 -86 0 -68 2 -75 23 -85 16 -7 31 -7 52 2 l30 13 -31 4 c-37 4 -44 19 -44
100 l0 52 36 0 c45 0 42 24 -4 28 -25 3 -31 8 -34 30 l-3 27 -17 -32z"/>
<path d="M450 679 c-39 -16 -60 -49 -60 -97 0 -74 63 -116 141 -93 108 33 95
185 -17 197 -21 2 -50 -1 -64 -7z m91 -35 c48 -51 20 -144 -43 -144 -34 0 -68
45 -68 90 0 74 63 105 111 54z"/>
<path d="M828 674 c-35 -19 -48 -43 -48 -91 0 -47 19 -76 59 -93 36 -14 93 -6
111 16 17 20 7 28 -18 15 -33 -17 -61 -13 -87 14 -43 42 -34 54 43 57 64 3 67
4 70 29 2 19 -4 33 -24 48 -31 24 -68 26 -106 5z m84 -21 c33 -30 23 -43 -37
-43 -61 0 -73 16 -33 44 29 20 47 20 70 -1z"/>
<path d="M1004 678 c-4 -6 -2 -14 4 -16 15 -5 17 -152 2 -152 -5 0 -10 -4 -10
-10 0 -5 20 -10 45 -10 44 0 60 12 30 24 -22 8 -20 97 3 126 19 24 66 30 84
12 5 -5 12 -37 15 -71 5 -50 3 -62 -11 -67 -31 -12 -16 -24 29 -24 49 0 53 4
30 26 -10 11 -15 36 -15 78 0 48 -4 67 -18 79 -23 21 -81 22 -109 2 -19 -13
-22 -13 -27 0 -6 18 -42 20 -52 3z"/>
<path d="M1451 681 c-12 -8 -12 -12 2 -26 22 -22 23 -117 2 -139 -23 -22 -19
-26 30 -26 44 0 60 12 30 24 -12 4 -15 24 -15 91 0 74 -2 85 -17 85 -10 0 -24
-4 -32 -9z"/>
<path d="M1602 678 c-15 -8 -22 -19 -20 -32 4 -30 36 -33 40 -4 2 19 9 23 38
23 32 0 35 -3 38 -32 3 -31 1 -33 -28 -33 -17 0 -46 -7 -65 -14 -30 -13 -35
-20 -35 -49 0 -27 5 -36 25 -45 35 -16 56 -15 85 5 17 12 25 13 28 5 4 -14 58
-16 67 -3 3 5 -4 12 -15 16 -17 5 -20 15 -20 71 0 51 -4 68 -20 84 -22 22 -80
26 -118 8z m98 -116 c0 -53 -58 -80 -84 -39 -20 31 7 55 77 66 4 0 7 -12 7
-27z"/>
</g>
</svg>
