<?xml version="1.0" standalone="no"?>
<!DOCTYPE svg PUBLIC "-//W3C//DTD SVG 20010904//EN"
 "http://www.w3.org/TR/2001/REC-SVG-20010904/DTD/svg10.dtd">
<svg version="1.0" xmlns="http://www.w3.org/2000/svg"
 width="200.000000pt" height="200.000000pt" viewBox="0 0 200.000000 200.000000"
 preserveAspectRatio="xMidYMid meet">
<metadata>
Created by potrace 1.16, written by Peter Selinger 2001-2019
</metadata>
<g transform="translate(0.000000,200.000000) scale(0.100000,-0.100000)"
fill="#000000" stroke="none">
<path d="M1073 1482 c-77 -22 -123 -41 -123 -49 0 -18 23 -17 161 13 66 14
123 24 126 21 5 -5 103 -401 100 -403 -1 -1 -49 -14 -107 -28 -278 -72 -400
-109 -400 -123 0 -10 14 -13 53 -12 33 1 89 -9 156 -30 161 -48 175 -44 195
56 l11 56 60 16 c79 22 85 27 85 63 0 38 -99 428 -112 446 -16 20 -74 12 -205
-26z"/>
<path d="M772 1487 c-12 -13 -24 -37 -28 -54 -6 -30 -7 -30 -40 -20 -46 14
-62 -2 -80 -79 -20 -84 -19 -126 3 -122 12 2 25 28 41 81 18 56 29 77 41 77
15 0 13 -17 -21 -147 -43 -163 -50 -255 -24 -316 12 -29 20 -37 41 -37 31 0
76 44 106 103 24 46 109 400 109 452 0 75 -97 116 -148 62z m92 -39 c13 -21 9
-42 -35 -216 -50 -200 -68 -249 -99 -277 -18 -16 -20 -16 -26 -1 -14 37 12
205 71 463 12 52 64 70 89 31z"/>
<path d="M997 1304 c-58 -79 -83 -132 -70 -145 9 -9 15 -9 26 0 12 9 16 7 21
-11 3 -13 6 -33 6 -44 0 -43 21 -46 121 -21 l94 23 -1 35 c0 19 -4 46 -8 61
-6 22 -5 26 11 25 10 -1 18 5 18 13 0 15 -148 110 -172 110 -7 0 -28 -21 -46
-46z m97 -39 c20 -8 36 -19 36 -23 1 -4 5 -26 9 -49 l8 -43 -41 -11 c-22 -5
-48 -12 -57 -15 -13 -3 -21 7 -33 43 -16 45 -15 48 6 80 27 38 25 38 72 18z"/>
<path d="M1807 794 c-12 -13 -8 -34 8 -34 23 0 22 -228 -2 -245 -25 -19 -6
-35 43 -35 37 0 44 3 44 20 0 11 -4 20 -10 20 -5 0 -11 57 -12 138 l-3 137
-30 3 c-17 2 -34 0 -38 -4z"/>
<path d="M128 783 c-29 -4 -40 -33 -13 -33 12 0 15 -19 15 -115 0 -98 -2 -115
-16 -115 -9 0 -14 -7 -12 -17 2 -14 15 -19 52 -21 56 -4 81 12 54 32 -12 9
-18 27 -18 55 l0 41 58 0 c71 0 117 25 127 69 9 42 -1 69 -33 85 -28 14 -167
27 -214 19z"/>
<path d="M659 728 c-6 -13 -21 -31 -33 -41 -20 -16 -20 -18 -3 -31 13 -10 17
-28 17 -75 0 -80 11 -101 53 -101 39 0 81 25 57 34 -8 3 -24 4 -35 3 -18 -2
-20 5 -23 71 l-3 72 36 0 c46 0 43 24 -3 28 -28 3 -32 7 -32 33 0 35 -15 38
-31 7z"/>
<path d="M1299 728 c-6 -13 -21 -31 -33 -41 -20 -16 -20 -18 -3 -31 13 -10 17
-28 17 -75 0 -83 11 -101 59 -101 42 0 76 25 48 36 -9 3 -21 3 -28 -1 -19 -12
-29 16 -29 83 l0 62 36 0 c45 0 42 24 -4 28 -28 3 -32 7 -32 33 0 35 -15 38
-31 7z"/>
<path d="M842 688 c-61 -17 -89 -96 -57 -158 20 -38 43 -50 98 -50 52 0 100
30 81 50 -9 9 -17 9 -32 1 -45 -24 -88 -7 -105 42 -6 15 1 17 68 17 73 0 75 1
75 24 0 31 -37 72 -70 79 -14 3 -40 1 -58 -5z"/>
<path d="M1105 691 c-11 -5 -39 -7 -61 -4 -45 6 -70 -12 -40 -29 23 -13 23
-126 -1 -143 -25 -19 -6 -35 42 -35 44 0 71 24 40 36 -21 9 -21 107 1 128 21
22 61 20 74 -3 16 -32 13 -112 -7 -126 -25 -19 -6 -35 42 -35 48 0 67 16 42
35 -13 9 -17 28 -17 72 0 43 -5 67 -17 82 -20 24 -68 35 -98 22z"/>
<path d="M1624 690 c-17 -4 -36 -10 -42 -14 -17 -11 -15 -53 4 -60 25 -9 34
-7 34 8 0 16 26 46 40 46 13 0 40 -30 40 -45 0 -9 -17 -16 -47 -20 -66 -10
-93 -29 -93 -65 0 -15 7 -36 16 -44 18 -18 99 -22 109 -6 5 8 11 7 20 0 20
-17 69 -8 73 13 2 10 -3 17 -11 17 -11 0 -16 17 -19 70 -2 44 -9 75 -18 84
-19 18 -67 25 -106 16z"/>
<path d="M424 672 c-45 -36 -56 -90 -29 -142 20 -39 43 -50 105 -50 44 0 56 5
81 29 24 24 29 38 29 76 0 38 -5 52 -29 76 -25 25 -37 29 -83 29 -35 0 -60 -6
-74 -18z m115 -38 c25 -32 27 -71 5 -102 -42 -61 -131 13 -103 86 19 50 66 57
98 16z"/>
</g>
</svg>
